<?xml version="1.0" encoding="UTF-8" standalone="no"?>
<!-- Created with Inkscape (http://www.inkscape.org/) -->

<svg
   xmlns:dc="http://purl.org/dc/elements/1.1/"
   xmlns:cc="http://creativecommons.org/ns#"
   xmlns:rdf="http://www.w3.org/1999/02/22-rdf-syntax-ns#"
   xmlns:svg="http://www.w3.org/2000/svg"
   xmlns="http://www.w3.org/2000/svg"
   xmlns:sodipodi="http://sodipodi.sourceforge.net/DTD/sodipodi-0.dtd"
   xmlns:inkscape="http://www.inkscape.org/namespaces/inkscape"
   width="1000"
   height="600"
   viewBox="0 0 264.58333 158.75"
   id="svg2"
   version="1.1"
   inkscape:version="0.91+devel+osxmenu r12922"
   sodipodi:docname="jaaga-logo.svg"
   inkscape:export-filename="logo.png"
   inkscape:export-xdpi="89.919998"
   inkscape:export-ydpi="89.919998">
  <defs
     id="defs4" />
  <sodipodi:namedview
     id="base"
     pagecolor="#ffffff"
     bordercolor="#666666"
     borderopacity="1.0"
     inkscape:pageopacity="0.0"
     inkscape:pageshadow="2"
     inkscape:zoom="0.7"
     inkscape:cx="529.44522"
     inkscape:cy="366.1276"
     inkscape:document-units="px"
     inkscape:current-layer="layer1"
     showgrid="false"
     units="px"
     borderlayer="true"
     inkscape:showpageshadow="false"
     showguides="true"
     inkscape:guide-bbox="true"
     inkscape:snap-global="false"
     inkscape:window-width="1423"
     inkscape:window-height="792"
     inkscape:window-x="0"
     inkscape:window-y="23"
     inkscape:window-maximized="0">
    <sodipodi:guide
       position="75.370006,107.97689"
       orientation="0,1"
       id="guide3425" />
    <sodipodi:guide
       position="56.885416,61.799107"
       orientation="0,1"
       id="guide4311" />
  </sodipodi:namedview>
  <metadata
     id="metadata7">
    <rdf:RDF>
      <cc:Work
         rdf:about="">
        <dc:format>image/svg+xml</dc:format>
        <dc:type
           rdf:resource="http://purl.org/dc/dcmitype/StillImage" />
        <dc:title></dc:title>
      </cc:Work>
    </rdf:RDF>
  </metadata>
  <g
     inkscape:label="Layer 1"
     inkscape:groupmode="layer"
     id="layer1"
     transform="translate(0,-138.24999)">
    <g
       id="g4297"
       transform="translate(0,-61.988095)">
      <path
         id="path4287"
         d="m 41.718899,250.59028 0,31.56964 c 0,2.18425 -0.21417,3.73537 -0.642853,4.65398 -0.714475,1.55143 -2.299544,2.41087 -4.409551,2.32751 l -0.829482,-0.10085 -0.165365,8.14503 c 0.357497,0.0124 0.958631,0.0191 1.331778,0.0191 5.858692,0 9.910871,-2.27631 12.156363,-6.07324 1.326883,-2.24549 1.990061,-5.28728 1.990061,-9.12503 l 0,-31.41617 -9.430951,0 z"
         style="font-style:normal;font-variant:normal;font-weight:bold;font-stretch:normal;font-size:62.71047592px;line-height:125%;font-family:Helvetica;-inkscape-font-specification:'Helvetica, Bold';font-variant-ligatures:none;font-variant-caps:normal;font-variant-numeric:normal;text-align:start;letter-spacing:0px;word-spacing:0px;writing-mode:lr-tb;text-anchor:start;fill:#124b92;fill-opacity:1;stroke:none;stroke-width:0.26458332px;stroke-linecap:butt;stroke-linejoin:miter;stroke-opacity:1"
         inkscape:connector-curvature="0"
         sodipodi:nodetypes="cscsccscsccc" />
      <path
         id="text3417"
         d="m 26.192199,264.66034 a 4.5435818,4.5435818 0 0 0 -4.543391,4.54339 4.5435818,4.5435818 0 0 0 4.543391,4.54391 4.5435818,4.5435818 0 0 0 4.543909,-4.54391 4.5435818,4.5435818 0 0 0 -4.543909,-4.54339 z"
         style="font-style:normal;font-variant:normal;font-weight:bold;font-stretch:normal;font-size:62.71047592px;line-height:125%;font-family:Helvetica;-inkscape-font-specification:'Helvetica, Bold';font-variant-ligatures:none;font-variant-caps:normal;font-variant-numeric:normal;text-align:start;letter-spacing:0px;word-spacing:0px;writing-mode:lr-tb;text-anchor:start;fill:#124b92;fill-opacity:1;stroke:none;stroke-width:0.26458332px;stroke-linecap:butt;stroke-linejoin:miter;stroke-opacity:1"
         inkscape:connector-curvature="0" />
      <path
         id="rect3423"
         d="m 85.790479,253.46412 -4.21148,13.05347 10.07277,30.74955 9.621631,0 z"
         style="opacity:1;fill:#124b92;fill-opacity:1;stroke:none;stroke-width:1.60000002;stroke-linecap:butt;stroke-linejoin:round;stroke-miterlimit:4;stroke-dasharray:none;stroke-dashoffset:0;stroke-opacity:1"
         inkscape:connector-curvature="0"
         sodipodi:nodetypes="ccccc" />
      <path
         id="path4267"
         d="m 135.11428,250.76248 15.23421,46.50466 -8.55245,0 -15.23421,-46.50466 8.55245,0 z"
         style="opacity:1;fill:#124b92;fill-opacity:1;stroke:none;stroke-width:1.60000002;stroke-linecap:butt;stroke-linejoin:round;stroke-miterlimit:4;stroke-dasharray:none;stroke-dashoffset:0;stroke-opacity:1"
         inkscape:connector-curvature="0" />
      <path
         style="opacity:1;fill:#124b92;fill-opacity:1;stroke:none;stroke-width:1.60000002;stroke-linecap:butt;stroke-linejoin:round;stroke-miterlimit:4;stroke-dasharray:none;stroke-dashoffset:0;stroke-opacity:1"
         d="m 223.43752,250.76248 -15.23421,46.50466 8.55245,0 15.23421,-46.50466 z"
         id="path4166" />
      <path
         id="rect4273"
         transform="matrix(0.26458333,0,0,0.26458333,0,138.24999)"
         d="m 763.71484,496.22852 -30.36718,17.76953 0.0234,0.64453 c -5.6e-4,30.96298 -25.10146,56.06307 -56.06445,56.0625 -1.01401,-2e-5 -5.15208,-0.0288 -6.15283,-0.082 l 0,32.35156 c 1.0035,0.0337 5.14112,0.0566 6.15283,0.0566 48.81577,1.5e-4 88.38886,-39.5729 88.38867,-88.38867 -0.0151,-6.19045 -0.67732,-12.36232 -1.98047,-18.41406 z"
         style="opacity:1;fill:#124b92;fill-opacity:1;stroke:none;stroke-width:6.04724407;stroke-linecap:butt;stroke-linejoin:round;stroke-miterlimit:4;stroke-dasharray:none;stroke-dashoffset:0;stroke-opacity:1"
         inkscape:connector-curvature="0"
         sodipodi:nodetypes="cccsccsccc" />
      <rect
         y="273.67059"
         x="16.414146"
         height="15.501633"
         width="235.73174"
         id="rect4259"
         style="opacity:1;fill:#f15024;fill-opacity:1;stroke:none;stroke-width:1.60000002;stroke-linecap:butt;stroke-linejoin:round;stroke-miterlimit:4;stroke-dasharray:none;stroke-dashoffset:0;stroke-opacity:1" />
      <path
         style="opacity:1;fill:#124b92;fill-opacity:1;stroke:none;stroke-width:1.60000002;stroke-linecap:butt;stroke-linejoin:round;stroke-miterlimit:4;stroke-dasharray:none;stroke-dashoffset:0;stroke-opacity:1"
         d="m 229.64645,266.51759 10.07276,30.74955 9.62164,0 -0.0217,-0.0667 2.84944,0 0,-8.21862 -5.54178,0 -12.5799,-36.08468 z"
         id="path4252" />
      <path
         id="path4271"
         transform="matrix(0.26458333,0,0,0.26458333,0,138.24999)"
         d="m 677.30664,426.25391 c -48.81505,9e-4 -88.38687,39.57361 -88.38672,88.38867 -1.5e-4,47.8033 37.94985,86.7376 85.36524,88.33203 l 0,-32.35156 c -29.55689,-1.57071 -53.04051,-26.03225 -53.04102,-55.98047 -5.3e-4,-30.96303 25.09948,-56.06393 56.0625,-56.06446 2.22353,0.0151 4.44428,0.16102 6.65039,0.43946 10.2946,-5.70274 20.17523,-8.09901 31.73242,-23.90235 -13.18197,-7.42915 -23.25158,-8.82447 -38.38281,-8.86132 z m 56.06445,88.38867 c -5e-5,2.90278 -0.22106,5.75324 -0.64648,8.53711 0.42542,-2.78387 0.64643,-5.63433 0.64648,-8.53711 z m -0.64648,8.53711 c -0.28361,1.85591 -0.65822,3.68328 -1.11914,5.47461 0.46092,-1.79133 0.83553,-3.6187 1.11914,-5.47461 z m -12.15625,27.125 c -1.14257,1.38442 -2.35093,2.7123 -3.61914,3.98047 1.26821,-1.26817 2.47657,-2.59605 3.61914,-3.98047 z m -46.24609,52.66992 c 0.99124,0.0329 1.98512,0.0566 2.98437,0.0566 -0.99929,-2e-5 -1.99313,-0.0236 -2.98437,-0.0566 z"
         style="opacity:1;fill:#124b92;fill-opacity:1;stroke:none;stroke-width:6.04724407;stroke-linecap:butt;stroke-linejoin:round;stroke-miterlimit:4;stroke-dasharray:none;stroke-dashoffset:0;stroke-opacity:1"
         inkscape:connector-curvature="0" />
      <path
         id="path3436"
         d="m 197.29235,259.69217 -18.26917,10.69082 3.74189,6.99647 18.26865,-10.69082 -3.74137,-6.99647 z"
         style="opacity:1;fill:#124b92;fill-opacity:1;stroke:none;stroke-width:1.60000002;stroke-linecap:butt;stroke-linejoin:round;stroke-miterlimit:4;stroke-dasharray:none;stroke-dashoffset:0;stroke-opacity:1"
         inkscape:connector-curvature="0" />
      <path
         id="path3434"
         d="m 124.69388,253.8421 4.21148,12.67549 -10.07277,30.74955 -9.62164,0 z"
         style="opacity:1;fill:#124b92;fill-opacity:1;stroke:none;stroke-width:1.60000002;stroke-linecap:butt;stroke-linejoin:round;stroke-miterlimit:4;stroke-dasharray:none;stroke-dashoffset:0;stroke-opacity:1"
         inkscape:connector-curvature="0"
         sodipodi:nodetypes="ccccc" />
      <path
         id="path4263"
         d="m 75.370075,250.76248 -15.234211,46.50466 8.55245,0 15.234211,-46.50466 -8.55245,0 z"
         style="opacity:1;fill:#124b92;fill-opacity:1;stroke:none;stroke-width:1.60000002;stroke-linecap:butt;stroke-linejoin:round;stroke-miterlimit:4;stroke-dasharray:none;stroke-dashoffset:0;stroke-opacity:1"
         inkscape:connector-curvature="0" />
      <path
         id="rect4289"
         d="m 22.213631,278.60768 0,1.04128 c 0,5.30754 1.000321,9.50233 3.00085,12.58477 1.873113,2.86701 5.437924,4.76926 10.693403,4.95186 l 0,-8.07415 c -1.820598,-0.14614 -3.037938,-0.8401 -3.650422,-2.08308 -0.673647,-1.42895 -1.05161,-3.88868 -1.133263,-7.3794 l 0,-1.04128 z"
         style="opacity:1;fill:#124b92;fill-opacity:1;stroke:none;stroke-width:1.60000002;stroke-linecap:butt;stroke-linejoin:round;stroke-miterlimit:4;stroke-dasharray:none;stroke-dashoffset:0;stroke-opacity:1"
         inkscape:connector-curvature="0"
         sodipodi:nodetypes="csccccccc" />
    </g>
  </g>
</svg>
