<?xml version="1.0" encoding="UTF-8" standalone="no"?>
<!-- Created with Inkscape (http://www.inkscape.org/) -->

<svg
   xmlns:dc="http://purl.org/dc/elements/1.1/"
   xmlns:cc="http://creativecommons.org/ns#"
   xmlns:rdf="http://www.w3.org/1999/02/22-rdf-syntax-ns#"
   xmlns:svg="http://www.w3.org/2000/svg"
   xmlns="http://www.w3.org/2000/svg"
   xmlns:sodipodi="http://sodipodi.sourceforge.net/DTD/sodipodi-0.dtd"
   xmlns:inkscape="http://www.inkscape.org/namespaces/inkscape"
   width="149.63521"
   height="49.930016"
   viewBox="0 0 39.590981 13.21065"
   id="svg4473"
   version="1.1"
   inkscape:version="0.91+devel+osxmenu r12922"
   sodipodi:docname="logo.svg">
  <defs
     id="defs4475" />
  <sodipodi:namedview
     id="base"
     pagecolor="#ffffff"
     bordercolor="#666666"
     borderopacity="1.0"
     inkscape:pageopacity="0.0"
     inkscape:pageshadow="2"
     inkscape:zoom="1"
     inkscape:cx="-99.182397"
     inkscape:cy="24.965007"
     inkscape:document-units="px"
     inkscape:current-layer="layer1"
     showgrid="false"
     fit-margin-top="0"
     fit-margin-left="0"
     fit-margin-right="0"
     fit-margin-bottom="0"
     borderlayer="true"
     inkscape:showpageshadow="false"
     units="px"
     inkscape:window-width="1080"
     inkscape:window-height="675"
     inkscape:window-x="0"
     inkscape:window-y="23"
     inkscape:window-maximized="0" />
  <metadata
     id="metadata4478">
    <rdf:RDF>
      <cc:Work
         rdf:about="">
        <dc:format>image/svg+xml</dc:format>
        <dc:type
           rdf:resource="http://purl.org/dc/dcmitype/StillImage" />
        <dc:title />
      </cc:Work>
    </rdf:RDF>
  </metadata>
  <g
     inkscape:label="Layer 1"
     inkscape:groupmode="layer"
     id="layer1"
     transform="translate(-62.603319,-69.65658)">
    <path
       sodipodi:nodetypes="cscsccscsccc"
       inkscape:connector-curvature="0"
       style="font-style:normal;font-variant:normal;font-weight:bold;font-stretch:normal;font-size:62.71047592px;line-height:125%;font-family:Helvetica;-inkscape-font-specification:'Helvetica, Bold';font-variant-ligatures:none;font-variant-caps:normal;font-variant-numeric:normal;text-align:start;letter-spacing:0px;word-spacing:0px;writing-mode:lr-tb;text-anchor:start;fill:#124b92;fill-opacity:1;stroke:none;stroke-width:0.26458332px;stroke-linecap:butt;stroke-linejoin:miter;stroke-opacity:1"
       d="m 69.774746,69.65703 0,8.94691 c 0,0.61902 -0.0607,1.05861 -0.182187,1.31895 -0.202484,0.43968 -0.651696,0.68325 -1.249677,0.65962 l -0.235077,-0.0286 -0.04686,2.30832 c 0.101316,0.004 0.271678,0.005 0.377429,0.005 1.660368,0 2.808765,-0.64512 3.445143,-1.72118 0.376042,-0.63637 0.563988,-1.49842 0.563988,-2.58605 l 0,-8.90342 -2.672754,0 z"
       id="path4420" />
    <path
       inkscape:connector-curvature="0"
       style="font-style:normal;font-variant:normal;font-weight:bold;font-stretch:normal;font-size:62.71047592px;line-height:125%;font-family:Helvetica;-inkscape-font-specification:'Helvetica, Bold';font-variant-ligatures:none;font-variant-caps:normal;font-variant-numeric:normal;text-align:start;letter-spacing:0px;word-spacing:0px;writing-mode:lr-tb;text-anchor:start;fill:#124b92;fill-opacity:1;stroke:none;stroke-width:0.26458332px;stroke-linecap:butt;stroke-linejoin:miter;stroke-opacity:1"
       d="m 65.374441,73.64452 a 1.287662,1.287662 0 0 0 -1.287608,1.28761 1.287662,1.287662 0 0 0 1.287608,1.28775 1.287662,1.287662 0 0 0 1.287755,-1.28775 1.287662,1.287662 0 0 0 -1.287755,-1.28761 z"
       id="path4422" />
    <rect
       style="opacity:1;fill:#f15024;fill-opacity:1;stroke:none;stroke-width:1.60000014;stroke-linecap:butt;stroke-linejoin:round;stroke-miterlimit:4;stroke-dasharray:none;stroke-dashoffset:0;stroke-opacity:1"
       id="rect4424"
       width="12.551229"
       height="4.3931999"
       x="62.603321"
       y="76.198044" />
    <path
       sodipodi:nodetypes="csccccccc"
       inkscape:connector-curvature="0"
       style="opacity:1;fill:#124b92;fill-opacity:1;stroke:none;stroke-width:1.60000014;stroke-linecap:butt;stroke-linejoin:round;stroke-miterlimit:4;stroke-dasharray:none;stroke-dashoffset:0;stroke-opacity:1"
       d="m 64.246906,77.59723 0,0.2951 c 0,1.50417 0.283493,2.69298 0.850448,3.56655 0.530844,0.81252 1.54112,1.35162 3.030536,1.40337 l 0,-2.28823 c -0.515962,-0.0414 -0.860959,-0.23809 -1.034539,-0.59035 -0.190913,-0.40497 -0.298028,-1.10206 -0.321169,-2.09134 l 0,-0.2951 z"
       id="path4426" />
    <path
       style="opacity:1;fill:#124b92;fill-opacity:1;stroke:none;stroke-width:6.04724455;stroke-linecap:butt;stroke-linejoin:round;stroke-miterlimit:4;stroke-dasharray:none;stroke-dashoffset:0;stroke-opacity:1"
       d="M 58.826172 10.582031 L 50.730469 35.291016 L 55.275391 35.291016 L 63.371094 10.582031 L 58.826172 10.582031 z M 64.363281 12.017578 L 62.125 18.953125 L 67.476562 35.291016 L 72.589844 35.291016 L 64.363281 12.017578 z M 74.601562 18.007812 L 74.601562 35.492188 L 85.136719 35.492188 L 85.136719 32.251953 L 78.658203 32.251953 L 78.658203 18.007812 L 74.601562 18.007812 z M 86.830078 18.007812 L 86.830078 28.365234 C 86.830078 29.437234 87.001703 30.420406 87.345703 31.316406 C 87.689703 32.212406 88.185984 32.984812 88.833984 33.632812 C 89.481984 34.280814 90.269266 34.784531 91.197266 35.144531 C 92.125266 35.504531 93.173797 35.685547 94.341797 35.685547 C 95.501797 35.685547 96.546609 35.504531 97.474609 35.144531 C 98.402609 34.784531 99.189891 34.280814 99.837891 33.632812 C 100.48589 32.984812 100.98217 32.212406 101.32617 31.316406 C 101.67817 30.420406 101.85352 29.437234 101.85352 28.365234 L 101.85352 18.007812 L 97.798828 18.007812 L 97.798828 28.365234 C 97.798828 28.981234 97.718594 29.533484 97.558594 30.021484 C 97.406594 30.501484 97.182719 30.908141 96.886719 31.244141 C 96.590719 31.580128 96.226922 31.841378 95.794922 32.025391 C 95.370922 32.201391 94.885797 32.289062 94.341797 32.289062 C 93.797797 32.289062 93.310906 32.201391 92.878906 32.025391 C 92.454906 31.841391 92.094828 31.580141 91.798828 31.244141 C 91.502828 30.900141 91.273281 30.487814 91.113281 30.007812 C 90.961269 29.519812 90.886719 28.969516 90.886719 28.353516 L 90.886719 18.007812 L 86.830078 18.007812 z M 104.50781 18.007812 L 104.50781 35.492188 L 108.08398 35.492188 L 108.08398 25.4375 C 108.08398 25.2055 108.07642 24.951688 108.06055 24.679688 C 108.04455 24.399686 108.02028 24.119844 107.98828 23.839844 L 112.64453 32.839844 C 112.78853 33.119844 112.97875 33.332562 113.21875 33.476562 C 113.46675 33.620564 113.74855 33.693359 114.06055 33.693359 L 114.61133 33.693359 C 114.92333 33.693359 115.19945 33.620564 115.43945 33.476562 C 115.68745 33.332562 115.88334 33.119844 116.02734 32.839844 L 120.66016 23.851562 C 120.61216 24.419564 120.58789 24.9495 120.58789 25.4375 L 120.58789 35.492188 L 124.16406 35.492188 L 124.16406 18.007812 L 121.06836 18.007812 C 120.89235 18.007812 120.7356 18.013421 120.59961 18.021484 C 120.47158 18.029472 120.35594 18.051784 120.25195 18.091797 C 120.14797 18.131784 120.0509 18.197144 119.96289 18.285156 C 119.88289 18.365156 119.80461 18.480825 119.72461 18.632812 L 115.23633 27.464844 C 115.07634 27.776844 114.91959 28.1015 114.76758 28.4375 C 114.61559 28.7655 114.47195 29.105031 114.33594 29.457031 C 114.19995 29.113031 114.05631 28.777219 113.9043 28.449219 C 113.7603 28.121219 113.60727 27.804 113.44727 27.5 L 108.94727 18.632812 C 108.86727 18.480825 108.78333 18.365156 108.69531 18.285156 C 108.61529 18.197144 108.52391 18.131784 108.41992 18.091797 C 108.31591 18.05186 108.19458 18.029547 108.05859 18.021484 C 107.93059 18.013421 107.77952 18.007812 107.60352 18.007812 L 104.50781 18.007812 z M 127.05469 18.007812 L 127.05469 35.492188 L 130.63086 35.492188 L 130.63086 26.121094 C 130.63086 25.865094 130.6233 25.592688 130.60742 25.304688 C 130.59137 25.008686 130.57081 24.708297 130.54688 24.404297 L 138.79102 34.820312 C 138.99103 35.076314 139.19808 35.251656 139.41406 35.347656 C 139.63006 35.443656 139.89503 35.492187 140.20703 35.492188 L 142.31836 35.492188 L 142.31836 18.007812 L 138.74219 18.007812 L 138.74219 27.259766 C 138.74219 27.539766 138.74975 27.840156 138.76562 28.160156 C 138.78164 28.472156 138.80589 28.796812 138.83789 29.132812 L 130.53516 18.632812 C 130.42318 18.496825 130.32239 18.388594 130.23438 18.308594 C 130.14635 18.228594 130.05498 18.168894 129.95898 18.128906 C 129.86298 18.08078 129.75475 18.049077 129.63477 18.033203 C 129.51477 18.017329 129.36741 18.007812 129.19141 18.007812 L 127.05469 18.007812 z M 145.55469 18.007812 L 145.55469 35.492188 L 149.63477 35.492188 L 149.63477 18.007812 L 145.55469 18.007812 z "
       transform="matrix(0.26458333,0,0,0.26458333,62.603319,69.65658)"
       id="path4432" />
  </g>
</svg>
